<svg width="20" height="20" viewBox="0 0 20 20" fill="none" xmlns="http://www.w3.org/2000/svg">
<path d="M9.9987 14.1663C9.0737 14.1663 8.33203 13.4163 8.33203 12.4997C8.33203 11.5747 9.0737 10.833 9.9987 10.833C10.4407 10.833 10.8646 11.0086 11.1772 11.3212C11.4898 11.6337 11.6654 12.0576 11.6654 12.4997C11.6654 12.9417 11.4898 13.3656 11.1772 13.6782C10.8646 13.9907 10.4407 14.1663 9.9987 14.1663ZM14.9987 16.6663V8.33301H4.9987V16.6663H14.9987ZM14.9987 6.66634C15.4407 6.66634 15.8646 6.84194 16.1772 7.1545C16.4898 7.46706 16.6654 7.89098 16.6654 8.33301V16.6663C16.6654 17.1084 16.4898 17.5323 16.1772 17.8449C15.8646 18.1574 15.4407 18.333 14.9987 18.333H4.9987C4.0737 18.333 3.33203 17.583 3.33203 16.6663V8.33301C3.33203 7.40801 4.0737 6.66634 4.9987 6.66634H5.83203V4.99967C5.83203 3.89461 6.27102 2.8348 7.05242 2.0534C7.83382 1.27199 8.89363 0.833008 9.9987 0.833008C10.5459 0.833008 11.0877 0.940782 11.5932 1.15018C12.0987 1.35957 12.5581 1.66649 12.945 2.0534C13.3319 2.44031 13.6388 2.89964 13.8482 3.40516C14.0576 3.91068 14.1654 4.4525 14.1654 4.99967V6.66634H14.9987ZM9.9987 2.49967C9.33566 2.49967 8.69977 2.76307 8.23093 3.23191C7.76209 3.70075 7.4987 4.33663 7.4987 4.99967V6.66634H12.4987V4.99967C12.4987 4.33663 12.2353 3.70075 11.7665 3.23191C11.2976 2.76307 10.6617 2.49967 9.9987 2.49967Z" fill="#737372"/>
</svg>
