<svg width="23" height="23" viewBox="0 0 23 23" fill="none" xmlns="http://www.w3.org/2000/svg">
<path fill-rule="evenodd" clip-rule="evenodd" d="M10.4115 2.04933C9.14208 2.19932 7.96245 2.67535 6.92522 3.45615C6.55926 3.73162 5.92651 4.35617 5.65648 4.70837C4.33609 6.43069 3.93613 8.49539 4.49576 10.7005C5.0874 13.0317 6.75325 15.6953 9.25503 18.3102C9.93789 19.024 10.874 19.8956 11.0216 19.955C11.1755 20.017 11.3317 20.0149 11.4958 19.9489C11.6483 19.8875 13.0203 18.5753 13.6277 17.9099C15.923 15.3952 17.4156 12.956 17.9869 10.7859C18.5742 8.5555 18.1724 6.42281 16.8411 4.70433C16.5866 4.37583 15.9884 3.77621 15.65 3.51038C14.1821 2.35751 12.2839 1.82805 10.4115 2.04933ZM11.654 5.02067C12.1048 5.07043 12.4892 5.17417 12.8747 5.35008C13.7438 5.74664 14.3673 6.346 14.774 7.17544C15.4756 8.60652 15.1477 10.3211 13.9611 11.4273C12.7856 12.5229 11.0755 12.8055 9.62212 12.1443C9.1807 11.9435 8.88329 11.7462 8.54113 11.4273C7.35445 10.3211 7.02663 8.60652 7.72823 7.17544C8.36937 5.86765 9.69064 5.03526 11.1963 4.9906C11.2767 4.98821 11.4826 5.00175 11.654 5.02067Z" fill="white"/>
</svg>
