<svg width="42" height="20" viewBox="0 0 42 20" fill="none" xmlns="http://www.w3.org/2000/svg">
<g clip-path="url(#clip0_899_9144)">
<path d="M21.7937 17.3393C20.982 17.2865 20.046 17.1475 19.3078 16.9388C19.1695 16.8996 18.597 16.6942 18.4513 16.6289C15.8813 15.4666 14.0909 12.9291 14.0909 9.98532C14.0909 5.94762 17.4552 2.65875 21.5932 2.65875C25.6945 2.65875 29.0362 5.89152 29.0936 9.88356H31.804C31.7465 4.43299 27.1896 0.0156536 21.5932 0.0156536C15.9635 0.0156536 11.3812 4.48713 11.3812 9.98532C11.3812 13.7758 13.5644 17.0725 16.7611 18.7567C17.3383 19.0548 18.1667 19.3621 18.448 19.4462C19.3592 19.711 20.4776 19.8872 21.473 19.9609C21.811 19.9856 22.9915 19.9987 23.3356 20H42V17.3641H23.367C23.1191 17.3641 22.0362 17.3549 21.7937 17.3393ZM23.367 13.2005C23.1699 13.2005 22.1391 13.194 21.9487 13.1783C21.626 13.1516 21.1583 13.1046 20.8577 13.0374C20.5183 12.9487 20.1997 12.8313 20.056 12.7543C19.0492 12.2227 18.3631 11.1829 18.3631 9.98532C18.3631 8.24304 19.8082 6.83017 21.5932 6.83017C23.3409 6.83017 24.7619 8.1876 24.8187 9.88356H27.4228C27.368 6.78517 24.7813 4.28818 21.5932 4.28818C18.3698 4.28818 15.757 6.83865 15.757 9.98532C15.757 12.2044 17.0597 14.1209 18.9571 15.0595C19.249 15.2265 19.7982 15.4013 19.9545 15.4411C20.4903 15.5787 21.2098 15.6727 21.7937 15.7144C22.0095 15.732 23.0663 15.7399 23.2895 15.7412V15.7451H41.9993V13.2005H23.367ZM9.71102 19.9902H6.98263V2.66462H2.99561V-1.90735e-06H9.71102V19.9902ZM0 3.99596V6.55817H2.99561V19.9902H5.6171V3.99596H0Z" fill="#D91920"/>
<path d="M37.1806 0.186673C36.1979 0.186673 35.3828 0.951815 35.3828 1.91199C35.3828 2.87217 36.1979 3.66797 37.1806 3.66797C38.1934 3.66797 38.977 2.87217 38.977 1.91199C38.977 0.951815 38.1934 0.186673 37.1806 0.186673ZM37.1806 3.38487C36.3689 3.38487 35.6694 2.76193 35.6694 1.91199C35.6694 1.1051 36.3689 0.466508 37.1806 0.466508C37.9916 0.466508 38.6877 1.1051 38.6877 1.91199C38.6877 2.76193 37.9916 3.38487 37.1806 3.38487Z" fill="#D91920"/>
<path d="M37.8629 2.38402C37.8629 2.19029 37.8335 2.01025 37.6063 1.93915C37.8909 1.84261 37.919 1.66062 37.919 1.55039C37.919 1.10487 37.5048 1.04812 37.3344 1.04812H36.5508V2.77344H36.8775V2.0657H37.1347C37.5048 2.0657 37.5355 2.23203 37.5355 2.38402C37.5355 2.6782 37.5355 2.73365 37.6063 2.77344H37.9337C37.8629 2.70364 37.8909 2.6495 37.8629 2.38402ZM37.2629 1.81391H36.8775V1.27055H37.2075C37.436 1.27055 37.591 1.341 37.591 1.55039C37.591 1.66062 37.5355 1.81391 37.2629 1.81391Z" fill="#D91920"/>
</g>
<defs>
<clipPath id="clip0_899_9144">
<rect width="42" height="20" fill="white"/>
</clipPath>
</defs>
</svg>
