<svg width="23" height="23" viewBox="0 0 23 23" fill="none" xmlns="http://www.w3.org/2000/svg">
<path fill-rule="evenodd" clip-rule="evenodd" d="M3.03092 5.05799C2.79947 5.1358 2.61804 5.27428 2.4703 5.48582C2.37147 5.6273 2.25914 5.90699 2.29164 5.9307C2.4729 6.06289 11.2143 11.6311 11.2444 11.6336C11.2687 11.6355 13.2979 10.3537 15.7538 8.78498L20.2191 5.93278L20.1982 5.83031C20.1405 5.54727 19.8899 5.24675 19.5937 5.10547L19.3946 5.01051L11.3059 5.00293C3.54209 4.99565 3.20964 4.99787 3.03092 5.05799ZM2.25 11.0011C2.25 13.0887 2.2595 14.7968 2.2711 14.7968C2.29857 14.7968 8.19675 11.1792 8.25702 11.1254C8.29367 11.0926 7.69911 10.6983 5.32046 9.17763C3.68006 8.12894 2.31816 7.25617 2.29396 7.23813C2.25886 7.21193 2.25 7.96976 2.25 11.0011ZM17.2209 9.15293C14.813 10.694 14.2125 11.0926 14.2492 11.1253C14.3363 11.2031 20.2256 14.8038 20.2411 14.7888C20.2496 14.7805 20.2525 13.0745 20.2476 10.9977L20.2387 7.2216L17.2209 9.15293ZM5.8196 13.9227C2.43267 16.0065 2.30317 16.09 2.3138 16.1816C2.3432 16.4354 2.6141 16.7627 2.91254 16.905L3.11163 17H11.2531H19.3946L19.5937 16.905C19.8921 16.7627 20.163 16.4354 20.1925 16.1818C20.2031 16.0903 20.0718 16.0058 16.6805 13.9211L13.1574 11.7554L12.3803 12.2509C11.4567 12.8398 11.4378 12.8498 11.2531 12.8498C11.0686 12.8498 11.0541 12.8421 10.13 12.2527C9.70231 11.9799 9.34879 11.7572 9.3444 11.7578C9.34004 11.7584 7.75387 12.7326 5.8196 13.9227Z" fill="white"/>
</svg>
