<svg width="18" height="20" viewBox="0 0 18 20" fill="none" xmlns="http://www.w3.org/2000/svg">
<path d="M11.1356 1.4799C7.70101 4.89538 5.01442 7.62561 2.02608 10.5565C1.0395 11.5869 0.414637 12.5954 0.151555 13.582C-0.308879 15.4438 0.399035 17.056 1.63143 18.3176C2.81535 19.5015 4.08147 20.0606 5.4298 19.9948C6.77813 19.929 8.11 19.2494 9.42546 17.9559L17.8115 9.53701L16.4302 8.18869L8.04425 16.5747C7.18375 17.3928 6.15975 18.1641 4.98583 18.0545C3.19722 17.8034 1.61765 15.6143 2.02605 14.0753C2.5439 12.7099 3.2578 12.0872 4.24587 11.0991C7.25155 8.10113 9.59513 5.78275 12.5167 2.86115C13.6147 1.85783 14.3248 1.58618 15.3449 2.53228C15.8711 3.05847 16.1013 3.57368 16.0356 4.07793C15.9626 4.66628 15.6295 5.07321 15.2463 5.45915L7.58385 13.1216C7.2338 13.4723 6.43658 14.1454 6.10397 13.8451C5.84878 13.2531 6.50596 12.688 6.82743 12.3652L13.8651 5.3276L12.5168 3.94636L5.44625 10.984C4.22843 12.2401 3.35348 13.775 4.72277 15.1934C6.23713 16.4932 7.83248 15.6255 8.96508 14.5028L16.6275 6.84035C17.4168 6.0511 17.8663 5.19605 17.9759 4.27521C18.0623 2.98432 17.4803 1.94808 16.6933 1.15103C15.9536 0.415317 15.1544 0.0077989 14.161 1.68319e-05C12.9668 0.0478321 11.7925 0.834447 11.1356 1.4799Z" fill="#AE9549"/>
</svg>
