<svg width="64" height="64" viewBox="0 0 64 64" fill="none" xmlns="http://www.w3.org/2000/svg">
<path d="M15.0588 41.4118H22.5882V48.9412H15.0588V41.4118Z" fill="#F14534"/>
<path d="M0 3.76471C0 1.68552 1.68552 0 3.76471 0H11.2941V3.76471H3.76471V11.2941H0V3.76471Z" fill="#F14534"/>
<path d="M60.2353 0C62.3145 0 64 1.68552 64 3.76471V11.2941H60.2353V3.76471H52.7059V0H60.2353Z" fill="#F14534"/>
<path d="M60.2353 64C62.3145 64 64 62.3145 64 60.2353V52.7059H60.2353V60.2353H52.7059V64H60.2353Z" fill="#F14534"/>
<path d="M3.76471 64C1.68552 64 0 62.3145 0 60.2353V52.7059H3.76471V60.2353H11.2941V64H3.76471Z" fill="#F14534"/>
<path d="M7.52941 33.8824H30.1176V37.6471H11.2941V52.7059H26.3529V41.4118H30.1176V56.4706H11.2941C9.21493 56.4706 7.52941 54.7851 7.52941 52.7059V33.8824Z" fill="#F14534"/>
<path d="M48.9412 37.6471H52.7059V41.4118H48.9412V37.6471Z" fill="#F14534"/>
<path d="M52.7059 33.8824H56.4706V37.6471H52.7059V33.8824Z" fill="#F14534"/>
<path d="M33.8824 33.8824H45.1765V37.6471H37.6471V45.1765H33.8824V33.8824Z" fill="#F14534"/>
<path d="M45.1765 41.4118H41.4118V48.9412H33.8824V56.4706H37.6471V52.7059H45.1765V41.4118Z" fill="#F14534"/>
<path d="M45.1765 52.7059V56.4706H52.7059C54.7851 56.4706 56.4706 54.7851 56.4706 52.7059V45.1765H48.9412V48.9412H52.7059V52.7059H45.1765Z" fill="#F14534"/>
<path d="M22.5882 22.5882V15.0588H15.0588V22.5882H22.5882Z" fill="#F14534"/>
<path fill-rule="evenodd" clip-rule="evenodd" d="M11.2941 7.52941C9.21493 7.52941 7.52941 9.21493 7.52941 11.2941V30.1176H30.1176V7.52941H11.2941ZM11.2941 11.2941H26.3529V26.3529H11.2941V11.2941Z" fill="#F14534"/>
<path d="M41.4118 26.3529H45.1765V30.1176H41.4118V26.3529Z" fill="#F14534"/>
<path d="M33.8824 7.52941H52.7059C54.7851 7.52941 56.4706 9.21493 56.4706 11.2941V30.1176H48.9412V26.3529H52.7059V11.2941H37.6471V30.1176H33.8824V7.52941Z" fill="#F14534"/>
<path d="M41.4118 15.0588H48.9412V22.5882H41.4118V15.0588Z" fill="#F14534"/>
</svg>
