<svg width="64" height="64" viewBox="0 0 64 64" fill="none" xmlns="http://www.w3.org/2000/svg">
<g clip-path="url(#clip0_1313_12115)">
<path d="M27.7333 20.5378H22.5488L25.7916 0.365234H30.9757L27.7333 20.5378Z" fill="#00579F"/>
<path d="M46.5265 0.858825C45.5039 0.450662 43.882 0 41.8765 0C36.7567 0 33.1514 2.74676 33.1292 6.67379C33.0867 9.57115 35.7106 11.1804 37.673 12.1465C39.6788 13.1337 40.3606 13.778 40.3606 14.6579C40.3402 16.0093 38.7398 16.6323 37.2471 16.6323C35.1773 16.6323 34.0682 16.3111 32.3828 15.5592L31.7001 15.2369L30.9746 19.7652C32.1906 20.3226 34.4308 20.8172 36.7567 20.8388C42.1966 20.8388 45.7381 18.1346 45.7801 13.9497C45.8008 11.6533 44.4153 9.89374 41.4283 8.4559C39.615 7.5329 38.5045 6.91053 38.5045 5.96614C38.5258 5.1076 39.4437 4.22823 41.4906 4.22823C43.1761 4.18517 44.4144 4.59276 45.3525 5.00064L45.8215 5.21484L46.5265 0.858825Z" fill="#00579F"/>
<path d="M53.4177 13.3914C53.8446 12.2325 55.4875 7.74725 55.4875 7.74725C55.466 7.79032 55.9137 6.56697 56.1697 5.81596L56.532 7.55415C56.532 7.55415 57.5138 12.3828 57.7269 13.3914C56.9167 13.3914 54.4417 13.3914 53.4177 13.3914ZM59.8172 0.365234H55.8071C54.5704 0.365234 53.6309 0.729757 53.0973 2.03896L45.3965 20.5375H50.8364C50.8364 20.5375 51.732 18.0477 51.9245 17.5115C52.5212 17.5115 57.8131 17.5115 58.5809 17.5115C58.7297 18.2197 59.1995 20.5375 59.1995 20.5375H63.9998L59.8172 0.365234Z" fill="#00579F"/>
<path d="M18.2179 0.365234L13.1406 14.121L12.5858 11.3311C11.6471 8.11205 8.70322 4.61458 5.41797 2.87554L10.0686 20.5164H15.551L23.7 0.365234H18.2179Z" fill="#00579F"/>
<path d="M8.42661 0.365234H0.0853345L0 0.772826C6.50671 2.44684 10.816 6.48197 12.5865 11.332L10.7732 2.06092C10.4746 0.772541 9.55722 0.407733 8.42661 0.365234Z" fill="#FAA61A"/>
</g>
<g clip-path="url(#clip1_1313_12115)">
<path d="M16.4844 63.9168V61.3957C16.4844 60.4313 15.9011 59.7998 14.8996 59.7998C14.3989 59.7998 13.8545 59.9662 13.4801 60.5145C13.1885 60.0543 12.7704 59.7998 12.1433 59.7998C11.7252 59.7998 11.3072 59.9271 10.9766 60.3872V59.883H10.1016V63.9168H10.9766V61.6894C10.9766 60.9747 11.3509 60.6369 11.9343 60.6369C12.5176 60.6369 12.8093 61.0138 12.8093 61.6894V63.9168H13.6843V61.6894C13.6843 60.9747 14.1024 60.6369 14.642 60.6369C15.2253 60.6369 15.517 61.0138 15.517 61.6894V63.9168H16.4844ZM29.464 59.883H28.0445V58.6641H27.1695V59.883H26.3771V60.6809H27.1695V62.5314C27.1695 63.4566 27.5438 64 28.5452 64C28.9195 64 29.3376 63.8727 29.6293 63.7063L29.3765 62.9475C29.1237 63.1139 28.832 63.158 28.623 63.158C28.2049 63.158 28.0396 62.9034 28.0396 62.4873V60.6809H29.4591V59.883H29.464ZM36.892 59.7949C36.3913 59.7949 36.0559 60.0494 35.8468 60.3823V59.8781H34.9718V63.9119H35.8468V61.6404C35.8468 60.9698 36.1385 60.5879 36.683 60.5879C36.8482 60.5879 37.0573 60.632 37.2274 60.6711L37.4802 59.8291C37.3052 59.7949 37.0573 59.7949 36.892 59.7949ZM25.6673 60.2159C25.2493 59.9222 24.6659 59.7949 24.0388 59.7949C23.0374 59.7949 22.3714 60.2991 22.3714 61.097C22.3714 61.7677 22.8721 62.1495 23.7471 62.2719L24.1652 62.316C24.6222 62.3992 24.8749 62.5265 24.8749 62.737C24.8749 63.0307 24.5395 63.2412 23.9562 63.2412C23.3728 63.2412 22.911 63.0307 22.6193 62.8202L22.2013 63.4909C22.6582 63.8286 23.2853 63.9951 23.9124 63.9951C25.0791 63.9951 25.75 63.4468 25.75 62.6929C25.75 61.9782 25.2055 61.6013 24.3742 61.474L23.9562 61.4299C23.5819 61.3859 23.2902 61.3026 23.2902 61.053C23.2902 60.7593 23.5819 60.5928 24.0437 60.5928C24.5444 60.5928 25.0451 60.8033 25.2979 60.9306L25.6673 60.2159ZM48.9479 59.7949C48.4472 59.7949 48.1118 60.0494 47.9028 60.3823V59.8781H47.0277V63.9119H47.9028V61.6404C47.9028 60.9698 48.1944 60.5879 48.7389 60.5879C48.9042 60.5879 49.1132 60.632 49.2834 60.6711L49.5361 59.8389C49.366 59.7949 49.1181 59.7949 48.9479 59.7949ZM37.767 61.8999C37.767 63.1188 38.6032 64 39.8963 64C40.4796 64 40.8977 63.8727 41.3157 63.5398L40.8977 62.8251C40.5623 63.0797 40.2317 63.202 39.8525 63.202C39.1428 63.202 38.6421 62.6978 38.6421 61.8999C38.6421 61.1411 39.1428 60.6369 39.8525 60.5977C40.2268 60.5977 40.5623 60.725 40.8977 60.9747L41.3157 60.2599C40.8977 59.9222 40.4796 59.7998 39.8963 59.7998C38.6032 59.7949 37.767 60.6809 37.767 61.8999ZM45.861 61.8999V59.883H44.986V60.3872C44.6943 60.0103 44.2763 59.7998 43.7318 59.7998C42.604 59.7998 41.729 60.6809 41.729 61.8999C41.729 63.1188 42.604 64 43.7318 64C44.3151 64 44.7332 63.7895 44.986 63.4125V63.9168H45.861V61.8999ZM42.6477 61.8999C42.6477 61.1852 43.1047 60.5977 43.8582 60.5977C44.5679 60.5977 45.0686 61.146 45.0686 61.8999C45.0686 62.6146 44.5679 63.202 43.8582 63.202C43.1096 63.158 42.6477 62.6097 42.6477 61.8999ZM32.1766 59.7949C31.0099 59.7949 30.1737 60.6369 30.1737 61.895C30.1737 63.158 31.0099 63.9951 32.2203 63.9951C32.8037 63.9951 33.387 63.8286 33.8488 63.4468L33.4308 62.8153C33.0953 63.0699 32.6773 63.2363 32.2641 63.2363C31.7196 63.2363 31.18 62.9818 31.0536 62.2719H34.0141C34.0141 62.1446 34.0141 62.0614 34.0141 61.9341C34.053 60.6369 33.2995 59.7949 32.1766 59.7949ZM32.1766 60.5537C32.721 60.5537 33.0953 60.8914 33.178 61.518H31.0925C31.1751 60.9747 31.5495 60.5537 32.1766 60.5537ZM53.9161 61.8999V58.2871H53.0411V60.3872C52.7494 60.0103 52.3314 59.7998 51.7869 59.7998C50.6591 59.7998 49.7841 60.6809 49.7841 61.8999C49.7841 63.1188 50.6591 64 51.7869 64C52.3703 64 52.7883 63.7895 53.0411 63.4125V63.9168H53.9161V61.8999ZM50.7029 61.8999C50.7029 61.1852 51.1598 60.5977 51.9133 60.5977C52.6231 60.5977 53.1238 61.146 53.1238 61.8999C53.1238 62.6146 52.6231 63.202 51.9133 63.202C51.1598 63.158 50.7029 62.6097 50.7029 61.8999ZM21.4089 61.8999V59.883H20.5338V60.3872C20.2422 60.0103 19.8241 59.7998 19.2796 59.7998C18.1518 59.7998 17.2768 60.6809 17.2768 61.8999C17.2768 63.1188 18.1518 64 19.2796 64C19.863 64 20.2811 63.7895 20.5338 63.4125V63.9168H21.4089V61.8999ZM18.1567 61.8999C18.1567 61.1852 18.6136 60.5977 19.3671 60.5977C20.0769 60.5977 20.5776 61.146 20.5776 61.8999C20.5776 62.6146 20.0769 63.202 19.3671 63.202C18.6136 63.158 18.1567 62.6097 18.1567 61.8999Z" fill="black"/>
<path d="M38.5199 29.248H25.375V53.0297H38.5199V29.248Z" fill="#FF5A00"/>
<path d="M26.2497 41.1384C26.2497 36.3066 28.5053 32.0183 31.9666 29.2475C29.4193 27.2307 26.206 26.0117 22.701 26.0117C14.398 26.0117 7.67969 32.7771 7.67969 41.1384C7.67969 49.4996 14.398 56.265 22.701 56.265C26.206 56.265 29.4193 55.046 31.9666 53.0292C28.5005 50.2976 26.2497 45.9701 26.2497 41.1384Z" fill="#EB001B"/>
<path d="M56.2537 41.1384C56.2537 49.4996 49.5354 56.265 41.2324 56.265C37.7274 56.265 34.5141 55.046 31.9668 53.0292C35.4718 50.2535 37.6836 45.9701 37.6836 41.1384C37.6836 36.3066 35.428 32.0183 31.9668 29.2475C34.5092 27.2307 37.7225 26.0117 41.2275 26.0117C49.5354 26.0117 56.2537 32.8212 56.2537 41.1384Z" fill="#F79E1B"/>
</g>
<defs>
<clipPath id="clip0_1313_12115">
<rect width="64" height="20.8388" fill="white"/>
</clipPath>
<clipPath id="clip1_1313_12115">
<rect width="48.5738" height="37.9879" fill="white" transform="translate(7.67969 26.0117)"/>
</clipPath>
</defs>
</svg>
