<svg width="15" height="15" viewBox="0 0 15 15" fill="none" xmlns="http://www.w3.org/2000/svg">
<g clip-path="url(#clip0_1317_13097)">
<path d="M9.10363 1.10992C6.52771 3.67153 4.51276 5.71921 2.27152 7.91736C1.53158 8.69017 1.06293 9.44657 0.865619 10.1865C0.520294 11.5828 1.05123 12.792 1.97553 13.7382C2.86347 14.6261 3.81305 15.0454 4.8243 14.9961C5.83555 14.9468 6.83445 14.437 7.82105 13.4669L14.1106 7.15276L13.0746 6.14152L6.78514 12.431C6.13976 13.0446 5.37176 13.6231 4.49133 13.5409C3.14987 13.3526 1.96519 11.7107 2.27149 10.5565C2.65988 9.53243 3.1953 9.06537 3.93635 8.32434C6.19061 6.07585 7.9483 4.33706 10.1395 2.14586C10.963 1.39337 11.4956 1.18964 12.2607 1.89921C12.6553 2.29385 12.8279 2.68026 12.7786 3.05845C12.7239 3.49971 12.4741 3.80491 12.1867 4.09436L6.43984 9.84123C6.1773 10.1042 5.57939 10.609 5.32993 10.3838C5.13854 9.93983 5.63143 9.51603 5.87253 9.27393L11.1508 3.9957L10.1395 2.95977L4.83664 8.23799C3.92328 9.18006 3.26707 10.3312 4.29403 11.3951C5.4298 12.3699 6.62631 11.7191 7.47576 10.8771L13.2226 5.13026C13.8145 4.53832 14.1516 3.89703 14.2338 3.20641C14.2987 2.23823 13.8622 1.46106 13.2719 0.863273C12.7171 0.311485 12.1177 0.00584679 11.3727 9.28606e-06C10.477 0.0358721 9.59634 0.625834 9.10363 1.10992Z" fill="#C6A957"/>
</g>
<defs>
<clipPath id="clip0_1317_13097">
<rect width="15" height="15" fill="white" transform="translate(15 15) rotate(-180)"/>
</clipPath>
</defs>
</svg>
