<svg width="100" height="100" viewBox="0 0 100 100" fill="none" xmlns="http://www.w3.org/2000/svg">
<circle cx="50" cy="50" r="50" fill="#DDBC64"/>
<circle cx="50" cy="54" r="7" stroke="white" stroke-width="2"/>
<circle cx="33" cy="58" r="5" stroke="white" stroke-width="2"/>
<circle cx="67" cy="58" r="5" stroke="white" stroke-width="2"/>
<path d="M42 74H24V72C24 67.5817 27.5817 64 32 64H34C36.286 64 38.3481 64.9589 39.806 66.4963M58 74H76V72C76 67.5817 72.4183 64 68 64H66C63.714 64 61.6519 64.9589 60.194 66.4963M39.806 66.4963C39.2897 67.5544 39 68.7434 39 70V74H61V70C61 68.7434 60.7103 67.5544 60.194 66.4963M39.806 66.4963C41.105 63.8341 43.8383 62 47 62H53C56.1617 62 58.895 63.8341 60.194 66.4963" stroke="white" stroke-width="2" stroke-linecap="round" stroke-linejoin="round"/>
<path d="M54 66.5C55 66.5 57 68 57.5 69.5" stroke="white" stroke-width="2" stroke-linecap="round" stroke-linejoin="round"/>
<path d="M52.0665 30.1373C52.2066 30.4065 52.4613 30.5975 52.759 30.6566L57.0837 31.5147L54.0345 34.9153C53.8419 35.1301 53.7514 35.4176 53.7864 35.704L54.3446 40.2776L50.4453 38.3383C50.1648 38.1988 49.8352 38.1988 49.5547 38.3383L45.6554 40.2776L46.2136 35.704C46.2486 35.4176 46.1581 35.1301 45.9655 34.9153L42.9163 31.5147L47.241 30.6566C47.5387 30.5975 47.7934 30.4065 47.9335 30.1373L50 26.1663L52.0665 30.1373Z" stroke="white" stroke-width="2" stroke-linejoin="round"/>
<path d="M69.4102 37.8761C69.5502 38.1452 69.805 38.3362 70.1026 38.3953L73.0837 38.9868L70.9725 41.3413C70.7799 41.5561 70.6894 41.8437 70.7244 42.1301L71.1086 45.2776L68.4453 43.953C68.1648 43.8136 67.8352 43.8136 67.5547 43.953L64.8914 45.2776L65.2756 42.1301C65.3106 41.8437 65.2201 41.5561 65.0275 41.3413L62.9163 38.9868L65.8974 38.3953C66.195 38.3362 66.4498 38.1452 66.5898 37.8761L68 35.1663L69.4102 37.8761Z" stroke="white" stroke-width="2" stroke-linejoin="round"/>
<path d="M33.4102 37.8761C33.5502 38.1452 33.805 38.3362 34.1026 38.3953L37.0837 38.9868L34.9725 41.3413C34.7799 41.5561 34.6894 41.8437 34.7244 42.1301L35.1086 45.2776L32.4453 43.953C32.1648 43.8136 31.8352 43.8136 31.5547 43.953L28.8914 45.2776L29.2756 42.1301C29.3106 41.8437 29.2201 41.5561 29.0275 41.3413L26.9163 38.9868L29.8974 38.3953C30.195 38.3362 30.4498 38.1452 30.5898 37.8761L32 35.1663L33.4102 37.8761Z" stroke="white" stroke-width="2" stroke-linejoin="round"/>
</svg>
