<svg width="20" height="20" viewBox="0 0 20 20" fill="none" xmlns="http://www.w3.org/2000/svg">
<path d="M10.0007 7.5C10.6637 7.5 11.2996 7.76339 11.7684 8.23223C12.2373 8.70107 12.5007 9.33696 12.5007 10C12.5007 10.663 12.2373 11.2989 11.7684 11.7678C11.2996 12.2366 10.6637 12.5 10.0007 12.5C9.33761 12.5 8.70173 12.2366 8.23288 11.7678C7.76404 11.2989 7.50065 10.663 7.50065 10C7.50065 9.33696 7.76404 8.70107 8.23288 8.23223C8.70173 7.76339 9.33761 7.5 10.0007 7.5V7.5ZM10.0007 3.75C14.1673 3.75 17.7257 6.34167 19.1673 10C17.7257 13.6583 14.1673 16.25 10.0007 16.25C5.83398 16.25 2.27565 13.6583 0.833984 10C2.27565 6.34167 5.83398 3.75 10.0007 3.75ZM2.65065 10C4.02565 12.8 6.86732 14.5833 10.0007 14.5833C13.134 14.5833 15.9757 12.8 17.3507 10C15.9757 7.2 13.134 5.41667 10.0007 5.41667C6.86732 5.41667 4.02565 7.2 2.65065 10Z" fill="#A2A2A2"/>
</svg>
