<svg width="36" height="36" viewBox="0 0 36 36" fill="none" xmlns="http://www.w3.org/2000/svg">
<circle cx="18" cy="18" r="18" fill="#DDBC64"/>
<path d="M14.4998 9.66602H21.4998C24.1665 9.66602 26.3332 11.8327 26.3332 14.4993V21.4993C26.3332 22.7812 25.8239 24.0106 24.9175 24.917C24.0111 25.8235 22.7817 26.3327 21.4998 26.3327H14.4998C11.8332 26.3327 9.6665 24.166 9.6665 21.4993V14.4993C9.6665 13.2175 10.1757 11.9881 11.0822 11.0817C11.9886 10.1752 13.218 9.66602 14.4998 9.66602ZM14.3332 11.3327C13.5375 11.3327 12.7745 11.6488 12.2119 12.2114C11.6492 12.774 11.3332 13.537 11.3332 14.3327V21.666C11.3332 23.3243 12.6748 24.666 14.3332 24.666H21.6665C22.4622 24.666 23.2252 24.3499 23.7878 23.7873C24.3504 23.2247 24.6665 22.4617 24.6665 21.666V14.3327C24.6665 12.6743 23.3248 11.3327 21.6665 11.3327H14.3332ZM22.3748 12.5827C22.6511 12.5827 22.9161 12.6924 23.1114 12.8878C23.3068 13.0831 23.4165 13.3481 23.4165 13.6243C23.4165 13.9006 23.3068 14.1656 23.1114 14.3609C22.9161 14.5563 22.6511 14.666 22.3748 14.666C22.0986 14.666 21.8336 14.5563 21.6383 14.3609C21.4429 14.1656 21.3332 13.9006 21.3332 13.6243C21.3332 13.3481 21.4429 13.0831 21.6383 12.8878C21.8336 12.6924 22.0986 12.5827 22.3748 12.5827ZM17.9998 13.8327C19.1049 13.8327 20.1647 14.2717 20.9461 15.0531C21.7275 15.8345 22.1665 16.8943 22.1665 17.9993C22.1665 19.1044 21.7275 20.1642 20.9461 20.9456C20.1647 21.727 19.1049 22.166 17.9998 22.166C16.8948 22.166 15.835 21.727 15.0536 20.9456C14.2722 20.1642 13.8332 19.1044 13.8332 17.9993C13.8332 16.8943 14.2722 15.8345 15.0536 15.0531C15.835 14.2717 16.8948 13.8327 17.9998 13.8327ZM17.9998 15.4993C17.3368 15.4993 16.7009 15.7627 16.2321 16.2316C15.7632 16.7004 15.4998 17.3363 15.4998 17.9993C15.4998 18.6624 15.7632 19.2983 16.2321 19.7671C16.7009 20.236 17.3368 20.4993 17.9998 20.4993C18.6629 20.4993 19.2988 20.236 19.7676 19.7671C20.2364 19.2983 20.4998 18.6624 20.4998 17.9993C20.4998 17.3363 20.2364 16.7004 19.7676 16.2316C19.2988 15.7627 18.6629 15.4993 17.9998 15.4993Z" fill="white"/>
</svg>
