<svg width="36" height="36" viewBox="0 0 36 36" fill="none" xmlns="http://www.w3.org/2000/svg">
<circle cx="18" cy="18" r="18" fill="#DDBC64"/>
<path d="M19.1187 21.4286V10H21.4916C21.4916 11.8905 23.0468 13.4018 25 13.4286L24.9652 15.7143C23.6382 15.6961 22.4738 15.1769 21.4916 14.4442V21.4286C21.4916 23.9398 19.3528 26 16.7458 26C14.1388 26 12 23.9398 12 21.4286C12 18.9173 14.1388 16.8571 16.7458 16.8571V19.1429C15.4209 19.1429 14.3729 20.1524 14.3729 21.4286C14.3729 22.7048 15.4209 23.7143 16.7458 23.7143C18.0707 23.7143 19.1187 22.7048 19.1187 21.4286Z" fill="white"/>
</svg>
