<svg width="36" height="36" viewBox="0 0 36 36" fill="none" xmlns="http://www.w3.org/2000/svg">
<circle cx="18" cy="18" r="18" fill="#DDBC64"/>
<path d="M18.0335 9.66602C13.4835 9.66602 9.77516 13.3743 9.77516 17.9243C9.77516 19.3827 10.1585 20.7993 10.8752 22.0493L9.7085 26.3327L14.0835 25.1827C15.2918 25.841 16.6502 26.191 18.0335 26.191C22.5835 26.191 26.2918 22.4827 26.2918 17.9327C26.2918 15.7243 25.4335 13.6493 23.8752 12.091C22.3168 10.5243 20.2418 9.66602 18.0335 9.66602ZM18.0418 11.0577C19.8752 11.0577 21.5918 11.7743 22.8918 13.0743C24.1835 14.3743 24.9002 16.0993 24.9002 17.9327C24.9002 21.716 21.8168 24.791 18.0335 24.791C16.8002 24.791 15.5918 24.466 14.5418 23.8327L14.2918 23.691L11.6918 24.3743L12.3835 21.841L12.2168 21.5743C11.5335 20.4993 11.1668 19.2243 11.1668 17.9243C11.1752 14.141 14.2502 11.0577 18.0418 11.0577ZM15.1085 14.1077C14.9752 14.1077 14.7502 14.1577 14.5585 14.366C14.3752 14.5743 13.8335 15.0827 13.8335 16.091C13.8335 17.1077 14.5752 18.0827 14.6668 18.2243C14.7835 18.366 16.1335 20.4493 18.2085 21.3327C18.7002 21.5577 19.0835 21.6827 19.3835 21.7743C19.8752 21.9327 20.3252 21.9077 20.6835 21.8577C21.0835 21.7993 21.9002 21.3577 22.0752 20.8743C22.2502 20.391 22.2502 19.9827 22.2002 19.891C22.1418 19.8077 22.0085 19.7577 21.8002 19.666C21.5918 19.5493 20.5752 19.0493 20.3918 18.9827C20.2002 18.916 20.0835 18.8827 19.9252 19.0827C19.7918 19.291 19.3918 19.7577 19.2752 19.891C19.1502 20.0327 19.0335 20.0493 18.8335 19.9493C18.6168 19.841 17.9502 19.6243 17.1668 18.9243C16.5502 18.3743 16.1418 17.6993 16.0168 17.491C15.9168 17.291 16.0085 17.166 16.1085 17.0743C16.2002 16.9827 16.3335 16.8327 16.4168 16.7077C16.5252 16.591 16.5585 16.4993 16.6252 16.366C16.6918 16.2243 16.6585 16.1077 16.6085 16.0077C16.5585 15.916 16.1418 14.8827 15.9668 14.4743C15.8002 14.0743 15.6335 14.1243 15.5002 14.116C15.3835 14.116 15.2502 14.1077 15.1085 14.1077Z" fill="white"/>
</svg>
